# xmcd
#
# Track frame offsets:
#	150
#	9473
#	26945
#	43732
#	54334
#	68990
#	91142
#	127585
#	144202
#	163301
#	184263
#	199763
#	208780
#	236099
#
# Disc length: 3427 seconds
#
# Revision: 0
# Processed by: cddbd v1.5.1PL0 Copyright (c) Steve Scherf et al.
# Submitted via: dBpowerAMP V4.0
#
DISCID=c20d610e
DTITLE=Fat Bastard - Get In My Belly
DYEAR=1900
DGENRE=swisha house
TTITLE0=Down
TTITLE1=Aren't We The Cutest
TTITLE2=The Perfect Team Pt. 2
TTITLE3=I Really Mean It
TTITLE4=I Hate A Hater
TTITLE5=All I Wear
TTITLE6=We Ain't Playin Wit Cha
TTITLE7=Smokin' Dro
TTITLE8=Swang High Swang Low
TTITLE9=Dirty South Rydaz
TTITLE10=Street Pharmacy
TTITLE11=OK
TTITLE12=What U Doin'
TTITLE13=Get In My Belly
EXTD=Fat Bastard Get In My Belly
EXTT0=
EXTT1=
EXTT2=
EXTT3=
EXTT4=
EXTT5=
EXTT6=
EXTT7=
EXTT8=
EXTT9=
EXTT10=
EXTT11=
EXTT12=
EXTT13=
PLAYORDER=
